# xmcd
#
# Track frame offsets:
#	150
#	15891
#	30704
#	47970
#	66862
#	83579
#	100197
#	112925
#	131478
#	153039
#	169217
#	186850
#
# Disc length: 2668 seconds
#
# Revision: 1
# Processed by: cddbd v1.5.2PL0 Copyright (c) Steve Scherf et al.
# Submitted via: audiograbber 1.83.01
#
DISCID=8a0a6a0c
DTITLE=Cheryl Dunn - Let Go
DYEAR=2004
DGENRE=Christian Country
TTITLE0=Let Go
TTITLE1=Jesus Is Your Ticket To Heaven
TTITLE2=Hey Do You Know Me?
TTITLE3=In My Life
TTITLE4=You Can Always Reach Me
TTITLE5=The Last Train
TTITLE6=There's A Storm Rollin' In
TTITLE7=You
TTITLE8=Whosoever Will
TTITLE9=Hymn Medley
TTITLE10=Pleasures of The King
TTITLE11=The River of God
EXTD=
EXTT0=
EXTT1=
EXTT2=
EXTT3=
EXTT4=
EXTT5=
EXTT6=
EXTT7=
EXTT8=
EXTT9=
EXTT10=
EXTT11=
PLAYORDER=
